<svg width="18" height="22" viewBox="0 0 18 22" fill="none" xmlns="http://www.w3.org/2000/svg">
<path d="M4.79995 14C4.64082 14 4.48821 13.9368 4.37569 13.8243C4.26317 13.7118 4.19995 13.5592 4.19995 13.4C4.19995 13.2409 4.26317 13.0883 4.37569 12.9758C4.48821 12.8633 4.64082 12.8 4.79995 12.8H13.2C13.3591 12.8 13.5117 12.8633 13.6242 12.9758C13.7367 13.0883 13.8 13.2409 13.8 13.4C13.8 13.5592 13.7367 13.7118 13.6242 13.8243C13.5117 13.9368 13.3591 14 13.2 14H4.79995ZM4.79995 17C4.64082 17 4.48821 16.9368 4.37569 16.8243C4.26317 16.7118 4.19995 16.5592 4.19995 16.4C4.19995 16.2409 4.26317 16.0883 4.37569 15.9758C4.48821 15.8633 4.64082 15.8 4.79995 15.8H13.2C13.3591 15.8 13.5117 15.8633 13.6242 15.9758C13.7367 16.0883 13.8 16.2409 13.8 16.4C13.8 16.5592 13.7367 16.7118 13.6242 16.8243C13.5117 16.9368 13.3591 17 13.2 17H4.79995Z" fill="#BABABA"/>
<path fill-rule="evenodd" clip-rule="evenodd" d="M10.422 0.199951H2.39998C1.92259 0.199951 1.46475 0.389594 1.12718 0.727159C0.789618 1.06472 0.599976 1.52256 0.599976 1.99995V20C0.599976 20.4773 0.789618 20.9352 1.12718 21.2727C1.46475 21.6103 1.92259 21.8 2.39998 21.8H15.6C16.0774 21.8 16.5352 21.6103 16.8728 21.2727C17.2103 20.9352 17.4 20.4773 17.4 20V7.64235C17.3999 7.19172 17.2307 6.75752 16.926 6.42555L11.7492 0.783151C11.5805 0.599246 11.3754 0.452432 11.1469 0.352033C10.9184 0.251634 10.6715 0.199844 10.422 0.199951ZM1.79998 1.99995C1.79998 1.84082 1.86319 1.68821 1.97571 1.57569C2.08823 1.46317 2.24085 1.39995 2.39998 1.39995H10.422C10.5052 1.39986 10.5876 1.4171 10.6638 1.45056C10.7401 1.48403 10.8085 1.533 10.8648 1.59435L16.0416 7.23675C16.1433 7.34735 16.1998 7.49209 16.2 7.64235V20C16.2 20.1591 16.1368 20.3117 16.0242 20.4242C15.9117 20.5367 15.7591 20.6 15.6 20.6H2.39998C2.24085 20.6 2.08823 20.5367 1.97571 20.4242C1.86319 20.3117 1.79998 20.1591 1.79998 20V1.99995Z" fill="#BABABA"/>
<path d="M10.8 1.52002V7.16002H16.44" stroke="#BABABA" stroke-width="1.2" stroke-linecap="round" stroke-linejoin="round"/>
<path d="M6.7608 6.35952C6.93216 6.36476 7.10283 6.33554 7.26269 6.27359C7.42255 6.21163 7.56834 6.11821 7.69141 5.99885C7.81448 5.87949 7.91232 5.73663 7.97914 5.57874C8.04596 5.42086 8.08039 5.25116 8.08039 5.07972C8.08039 4.90827 8.04596 4.73858 7.97914 4.58069C7.91232 4.4228 7.81448 4.27994 7.69141 4.16058C7.56834 4.04123 7.42255 3.9478 7.26269 3.88584C7.10283 3.82389 6.93216 3.79467 6.7608 3.79992C6.42816 3.8101 6.11255 3.9494 5.88086 4.1883C5.64917 4.4272 5.51959 4.74692 5.51959 5.07972C5.51959 5.41251 5.64917 5.73223 5.88086 5.97113C6.11255 6.21003 6.42816 6.34933 6.7608 6.35952Z" fill="#BABABA"/>
<path fill-rule="evenodd" clip-rule="evenodd" d="M9.31915 9.13287C9.31915 7.77207 8.17315 6.78687 6.75955 6.78687C5.34595 6.78687 4.19995 7.77087 4.19995 9.13287V9.77367C4.20027 9.88676 4.24542 9.99511 4.3255 10.075C4.40558 10.1548 4.51406 10.1997 4.62715 10.1997H8.89315C9.00604 10.1993 9.11421 10.1544 9.19403 10.0745C9.27385 9.99472 9.31883 9.88655 9.31915 9.77367V9.13287Z" fill="#BABABA"/>
</svg>
