<svg width="20" height="20" viewBox="0 0 20 20" fill="none" xmlns="http://www.w3.org/2000/svg">
<path d="M17.05 2.91005C16.1331 1.98416 15.041 1.25002 13.8375 0.750416C12.634 0.250812 11.3431 -0.00426317 10.04 5.38951e-05C4.57999 5.38951e-05 0.129988 4.45005 0.129988 9.91005C0.129988 11.6601 0.589988 13.3601 1.44999 14.8601L0.0499878 20.0001L5.29999 18.6201C6.74999 19.4101 8.37999 19.8301 10.04 19.8301C15.5 19.8301 19.95 15.3801 19.95 9.92005C19.95 7.27005 18.92 4.78005 17.05 2.91005ZM10.04 18.1501C8.55999 18.1501 7.10999 17.7501 5.83999 17.0001L5.53999 16.8201L2.41999 17.6401L3.24999 14.6001L3.04999 14.2901C2.22754 12.9771 1.79091 11.4593 1.78999 9.91005C1.78999 5.37005 5.48999 1.67005 10.03 1.67005C12.23 1.67005 14.3 2.53005 15.85 4.09005C16.6176 4.85392 17.2259 5.7626 17.6396 6.76338C18.0533 7.76417 18.2642 8.83714 18.26 9.92005C18.28 14.4601 14.58 18.1501 10.04 18.1501ZM14.56 11.9901C14.31 11.8701 13.09 11.2701 12.87 11.1801C12.64 11.1001 12.48 11.0601 12.31 11.3001C12.14 11.5501 11.67 12.1101 11.53 12.2701C11.39 12.4401 11.24 12.4601 10.99 12.3301C10.74 12.2101 9.93999 11.9401 8.99999 11.1001C8.25999 10.4401 7.76999 9.63005 7.61999 9.38005C7.47999 9.13005 7.59999 9.00005 7.72999 8.87005C7.83999 8.76005 7.97999 8.58005 8.09999 8.44005C8.21999 8.30005 8.26999 8.19005 8.34999 8.03005C8.42999 7.86005 8.38999 7.72005 8.32999 7.60005C8.26999 7.48005 7.76999 6.26005 7.56999 5.76005C7.36999 5.28005 7.15999 5.34005 7.00999 5.33005H6.52999C6.35999 5.33005 6.09999 5.39005 5.86999 5.64005C5.64999 5.89005 5.00999 6.49005 5.00999 7.71005C5.00999 8.93005 5.89999 10.1101 6.01999 10.2701C6.13999 10.4401 7.76999 12.9401 10.25 14.0101C10.84 14.2701 11.3 14.4201 11.66 14.5301C12.25 14.7201 12.79 14.6901 13.22 14.6301C13.7 14.5601 14.69 14.0301 14.89 13.4501C15.1 12.8701 15.1 12.3801 15.03 12.2701C14.96 12.1601 14.81 12.1101 14.56 11.9901Z" fill="#BABABA"/>
</svg>
