<svg width="40" height="40" viewBox="0 0 40 40" fill="none" xmlns="http://www.w3.org/2000/svg">
<circle cx="20" cy="20" r="19.65" fill="white" fill-opacity="0.04" stroke="#575757" stroke-width="0.7"/>
<path d="M13.884 26.6531C13.584 26.4531 13.326 26.1981 13.024 25.8371C12.8673 25.6452 12.7119 25.4522 12.558 25.2581C12.095 24.6831 11.803 24.4171 11.502 24.3081C11.3754 24.2662 11.2584 24.1994 11.158 24.1115C11.0575 24.0237 10.9757 23.9167 10.9173 23.7968C10.8588 23.6768 10.825 23.5464 10.8177 23.4132C10.8104 23.28 10.8299 23.1467 10.8749 23.0211C10.92 22.8956 10.9897 22.7803 11.08 22.6821C11.1702 22.5838 11.2792 22.5047 11.4006 22.4492C11.5219 22.3938 11.6531 22.3632 11.7865 22.3592C11.9198 22.3552 12.0526 22.378 12.177 22.4261C12.929 22.6961 13.438 23.1611 14.124 24.0141C14.03 23.8971 14.464 24.4411 14.557 24.5531C14.747 24.7801 14.887 24.9181 14.997 24.9911C15.201 25.1281 15.585 25.1871 16.147 25.1311C16.171 24.7491 16.241 24.3781 16.349 24.0361C13.381 23.3101 11.701 21.3961 11.701 17.6401C11.701 16.4001 12.071 15.2841 12.759 14.3481C12.541 13.4541 12.574 12.3731 13.061 11.1561C13.1163 11.0184 13.2015 10.8948 13.3105 10.7941C13.4194 10.6935 13.5494 10.6183 13.691 10.5741C13.772 10.5501 13.818 10.5391 13.899 10.5271C14.702 10.4031 15.836 10.6971 17.314 11.6231C18.1948 11.4169 19.0965 11.3136 20.001 11.3151C20.913 11.3151 21.82 11.4191 22.685 11.6231C24.162 10.6901 25.299 10.3961 26.107 10.5271C26.1924 10.5404 26.265 10.5571 26.325 10.5771C26.4639 10.6229 26.591 10.6985 26.6974 10.7987C26.8038 10.899 26.887 11.0213 26.941 11.1571C27.428 12.3731 27.461 13.4531 27.243 14.3471C27.934 15.2831 28.301 16.3921 28.301 17.6401C28.301 21.3971 26.627 23.3051 23.659 24.0321C23.784 24.4471 23.849 24.9101 23.849 25.4121C23.849 26.0771 23.847 26.7111 23.842 27.4221C23.842 27.6121 23.84 27.8161 23.837 28.1281C24.0616 28.177 24.2625 28.3017 24.4059 28.4814C24.5493 28.661 24.6264 28.8846 24.6243 29.1144C24.6222 29.3443 24.541 29.5664 24.3943 29.7433C24.2476 29.9203 24.0445 30.0414 23.819 30.0861C22.679 30.3131 21.835 29.5541 21.835 28.5611L21.837 28.1141L21.842 27.4091C21.847 26.7021 21.85 26.0721 21.85 25.4121C21.85 24.7151 21.666 24.2601 21.424 24.0511C20.763 23.4811 21.098 22.3971 21.965 22.3001C24.931 21.9671 26.301 20.8181 26.301 17.6401C26.301 16.6851 25.989 15.8961 25.388 15.2361C25.2615 15.097 25.1768 14.9252 25.1436 14.7401C25.1103 14.5551 25.1299 14.3645 25.2 14.1901C25.366 13.7761 25.436 13.2331 25.295 12.5761L25.285 12.5791C24.794 12.7181 24.175 13.0191 23.427 13.5281C23.3064 13.61 23.1694 13.6645 23.0255 13.6878C22.8816 13.7111 22.7343 13.7027 22.594 13.6631C21.75 13.4291 20.8779 13.3116 20.002 13.3141C19.112 13.3141 18.23 13.4321 17.41 13.6641C17.2704 13.7032 17.1239 13.7115 16.9808 13.6883C16.8376 13.6652 16.7012 13.6112 16.581 13.5301C15.828 13.0231 15.207 12.7231 14.711 12.5831C14.568 13.2361 14.639 13.7771 14.804 14.1901C14.8738 14.3645 14.8931 14.5549 14.8597 14.7398C14.8263 14.9246 14.7415 15.0962 14.615 15.2351C14.018 15.8901 13.702 16.6931 13.702 17.6391C13.702 20.8111 15.073 21.9671 18.024 22.2991C18.889 22.3961 19.226 23.4761 18.569 24.0471C18.376 24.2151 18.139 24.7791 18.139 25.4111V28.5611C18.139 29.5461 17.305 30.2861 16.179 30.0891C15.9508 30.049 15.7436 29.9309 15.5927 29.755C15.4419 29.5791 15.3569 29.3562 15.3522 29.1245C15.3474 28.8929 15.4233 28.6667 15.5668 28.4848C15.7104 28.3029 15.9126 28.1764 16.139 28.1271V27.1371C15.229 27.1981 14.478 27.0491 13.885 26.6521" fill="#BABABA"/>
</svg>
